<svg width="102" height="27" viewBox="0 0 102 27" fill="none" xmlns="http://www.w3.org/2000/svg">
<g clip-path="url(#clip0_51_287)">
<path d="M9.46009 3.12695L6.6441 4.56322L6.8194 4.90815L8.01252 4.29745L8.4253 5.11172L8.85505 4.89119L8.44227 4.07693L9.62973 3.47188L9.46009 3.12695Z" fill="#005CA9"/>
<path d="M7.7411 3.24014C8.13126 3.49459 8.56667 3.27406 8.56667 3.27406L9.20564 2.9461L9.05296 2.6464L8.56101 2.90086C8.56101 2.90086 8.18216 3.11008 7.88812 2.80473L8.87202 2.30147L8.69672 1.95654L6.13519 3.26841L6.31049 3.60768L7.29438 3.10443C7.37355 3.52287 6.98338 3.70947 6.98338 3.70947L6.49143 3.96392L6.64411 4.26362L7.28308 3.93565C7.28308 3.93565 7.71848 3.71512 7.7411 3.25145V3.24014Z" fill="#005CA9"/>
<path d="M4.67075 5.08936L4.34278 5.5191L3.98654 5.24203L3.6925 5.6322L5.81863 7.26638L6.11267 6.88186L4.64813 5.75094L4.9761 5.32685L4.67075 5.08936Z" fill="#005CA9"/>
<path d="M3.29665 6.24323C3.03654 6.37328 2.79339 6.70125 2.79339 6.70125C2.79339 6.70125 2.53894 7.02356 2.47674 7.30629C2.47674 7.30629 2.34103 7.79824 2.79905 8.16579C3.26838 8.51072 3.70944 8.25626 3.70944 8.25626C3.96955 8.12621 4.2127 7.79824 4.2127 7.79824C4.2127 7.79824 4.46715 7.48158 4.52935 7.1932C4.52935 7.1932 4.66506 6.70125 4.20704 6.3337C3.73771 5.98877 3.29665 6.24323 3.29665 6.24323ZM4.07699 7.19885C4.0374 7.36284 3.89039 7.54944 3.89039 7.54944C3.89039 7.54944 3.74902 7.74169 3.602 7.82086C3.602 7.82086 3.34754 7.97353 3.09309 7.78693C2.84428 7.58337 2.9291 7.30629 2.9291 7.30629C2.96869 7.14231 3.11571 6.95571 3.11571 6.95571C3.11571 6.95571 3.25707 6.76345 3.40409 6.68429C3.40409 6.68429 3.65289 6.53161 3.913 6.71821C4.16181 6.92178 4.07699 7.19885 4.07699 7.19885Z" fill="#005CA9"/>
<path d="M13.8877 1.27274V1.71946H13.5541V1.27274H13.0678V2.64116H11.9086L11.8916 2.61854V1.6516H12.802V1.26709H11.4336V2.73728C11.4336 2.89561 11.558 3.02001 11.7163 3.02001H13.0734V3.94737H13.5597V2.09832H13.8933V3.94737H14.3796V1.27274H13.8933H13.8877Z" fill="#005CA9"/>
<path d="M21.9511 8.43106L23.3817 7.30014C23.4948 7.20967 23.5231 7.04569 23.4439 6.92694L22.0077 5.11182L21.708 5.34931L23.0255 7.01176L21.6684 8.08613L21.38 7.71858L22.4035 6.90998L22.1264 6.55939L21.1029 7.368L20.8541 7.05134L21.8776 6.24274L21.6005 5.89215L20.5771 6.70076L20.2038 6.22577L19.8985 6.46326L21.8663 8.95129L22.166 8.71379L21.9398 8.42541L21.9511 8.43106Z" fill="#005CA9"/>
<path d="M19.8363 3.63042L19.3783 3.40423L19.5818 2.98014L19.186 2.78223L18.6205 3.93011L19.0164 4.12802L19.2256 3.70958L19.6836 3.93576L19.8363 3.63042Z" fill="#005CA9"/>
<path d="M18.8015 4.56919C18.8694 4.43348 18.8128 4.26384 18.6771 4.19599L16.4153 3.08203L16.257 3.39869L18.3661 4.43913L17.9929 5.2025L18.3944 5.39476L18.8015 4.56919Z" fill="#005CA9"/>
<path d="M16.7828 2.35238C16.7828 2.35238 16.6924 2.53898 16.7093 2.686C16.7093 2.686 16.7263 2.90088 16.9186 3.08182C17.0147 3.1723 17.1617 3.25146 17.3653 3.35324C17.5688 3.45503 17.7215 3.52288 17.8516 3.53984C18.1117 3.57943 18.2926 3.46068 18.2926 3.46068C18.4227 3.38152 18.5132 3.20057 18.5132 3.20057C18.5132 3.20057 18.581 3.0592 18.5867 2.91784L18.8015 3.02528L18.9712 2.68035L18.1399 2.27322L18.2361 2.08661L17.8403 1.8887L17.7441 2.08096L16.9186 1.67383L16.7489 2.01876L16.9638 2.1262C16.8564 2.21101 16.7885 2.35803 16.7885 2.35803L16.7828 2.35238ZM18.0382 3.13837C18.0382 3.13837 17.959 3.19491 17.8346 3.1723C17.7724 3.16099 17.6141 3.08748 17.5179 3.04224C17.4218 2.997 17.2804 2.92349 17.2352 2.87826C17.1447 2.79344 17.1391 2.69166 17.1391 2.69166C17.1278 2.6238 17.173 2.53898 17.173 2.53898C17.173 2.53898 17.2126 2.45416 17.2748 2.41458C17.2748 2.41458 17.3596 2.35803 17.4784 2.38065C17.5406 2.39196 17.6876 2.45982 17.7837 2.50505C17.8798 2.55029 18.0382 2.62945 18.0777 2.67469C18.1682 2.75951 18.1739 2.86129 18.1739 2.86129C18.1795 2.92915 18.1399 3.01962 18.1399 3.01962C18.1399 3.01962 18.1004 3.10444 18.0382 3.13837Z" fill="#005CA9"/>
<path d="M2.24492 14.7925L2.15445 14.0178L1.36281 13.8255L1.33453 13.5654L3.13835 14.0574C3.25144 14.0857 3.38715 14.1309 3.41542 13.9782H3.42673L3.48328 14.4589L1.97916 15.2788C1.80952 15.3692 1.64554 15.4428 1.56637 15.6294L1.51548 15.1657L2.23927 14.7868L2.24492 14.7925ZM3.20055 14.2836L2.39194 14.0687L2.4598 14.6737L3.20055 14.2836Z" fill="#005CA9"/>
<path d="M3.35886 15.8783C3.49457 15.8387 3.7151 15.7878 3.72075 15.6182H3.73206L3.90735 16.178H3.89604C3.79426 16.0536 3.58504 16.1384 3.44933 16.178L1.77557 16.7038C1.46457 16.8 1.22142 16.6586 1.0744 16.2967V16.2798C1.3741 16.4607 1.54373 16.4437 1.86039 16.342L3.34755 15.8726L3.35886 15.8783Z" fill="#005CA9"/>
<path d="M4.13351 19.2652C3.55109 19.5027 2.92908 19.1973 2.69159 18.6319C2.45975 18.0664 2.66332 17.4218 3.2514 17.1787C3.79424 16.9525 4.44452 17.2352 4.67635 17.8402C4.92516 18.4396 4.64243 19.0503 4.12786 19.2652H4.13351ZM3.41538 17.4897C3.0139 17.6536 2.71986 18.1117 2.90647 18.5584C3.08741 18.9938 3.51716 19.1408 3.94126 18.9655C4.3597 18.7959 4.65374 18.3605 4.46148 17.9081C4.28053 17.467 3.84513 17.3144 3.40972 17.4953L3.41538 17.4897Z" fill="#005CA9"/>
<path d="M5.12307 21.6122L5.27009 21.4652C5.04956 21.4991 4.81772 21.369 4.66505 21.2164C4.51803 21.0693 4.41059 20.8771 4.4219 20.6679C4.43321 20.4247 4.58588 20.2833 4.73856 20.125L5.32098 19.5426C5.41711 19.4408 5.5924 19.2994 5.53585 19.1411L5.85817 19.4634L5.54151 19.7688L4.95908 20.3512C4.6707 20.6396 4.65939 20.8997 4.87992 21.1259C5.00432 21.2503 5.17396 21.3238 5.35491 21.2899C5.468 21.2729 5.51889 21.2164 5.59805 21.1372L6.25399 20.4756C6.35577 20.3795 6.52541 20.2325 6.46886 20.0685L6.79117 20.3908L6.47452 20.6961L5.3436 21.827L5.12307 21.6065V21.6122Z" fill="#005CA9"/>
<path d="M9.08128 23.9982L9.15479 23.8172C8.96253 23.9303 8.69677 23.902 8.49886 23.8172C8.31226 23.7381 8.13696 23.5967 8.06345 23.4044C7.97863 23.1726 8.06345 22.986 8.14827 22.7824L8.46493 22.0191C8.51582 21.889 8.62326 21.6911 8.51017 21.561L8.92861 21.7363L8.75331 22.1378L8.43666 22.9012C8.27833 23.28 8.3688 23.5232 8.66284 23.6476C8.82117 23.7154 9.01343 23.7154 9.16045 23.6193C9.25657 23.5571 9.28485 23.4836 9.33008 23.3818L9.68632 22.5223C9.73721 22.3923 9.84465 22.1887 9.7259 22.0643L10.15 22.2396L9.97471 22.6467L9.36966 24.1169L9.07563 23.9982H9.08128Z" fill="#005CA9"/>
<path d="M12.6832 23.0425L12.4853 24.7672C12.2761 24.6711 12.1913 24.558 12.0782 24.3657L11.1791 22.9068L10.9982 24.4901L10.7776 24.4675L10.9643 22.8503C10.9869 22.6806 10.9982 22.5562 10.8512 22.4488V22.4375L11.2979 22.4884C11.3035 22.528 11.3148 22.5449 11.3375 22.5732L11.3714 22.6411L12.3327 24.1904L12.4684 23.0256C12.4853 22.8559 12.508 22.7202 12.3553 22.6071L12.7398 22.6524L12.6889 23.0482L12.6832 23.0425Z" fill="#005CA9"/>
<path d="M13.7067 24.6712L13.6276 23.0709C13.6219 22.9296 13.6276 22.7034 13.4692 22.6525L13.9216 22.6299L13.9442 23.054L14.0234 24.6542L13.7124 24.6712H13.7067Z" fill="#005CA9"/>
<path d="M22.9916 19.1578L21.6119 18.3435C21.4875 18.27 21.3065 18.1399 21.1765 18.2417L21.4083 17.8516L21.7758 18.0721L23.1556 18.8864L22.9972 19.1578H22.9916Z" fill="#005CA9"/>
<path d="M15.9573 22.8163C15.9856 22.5845 16.0308 22.313 15.8272 22.2848V22.2735L16.2739 22.166L15.9686 24.4279C15.7254 24.3374 15.6519 24.3317 15.5106 24.1169L14.7642 22.9972C14.6737 22.8559 14.5832 22.6919 14.4305 22.624V22.6127L14.8659 22.5109V22.5505C14.8886 22.6184 14.979 22.7484 15.0186 22.8106L15.8046 24.0038L15.9573 22.8276V22.8163Z" fill="#005CA9"/>
<path d="M17.5745 23.3593L17.0656 22.3132C17.0034 22.1888 16.9242 21.974 16.7546 21.9909V21.9796L17.6367 21.5442C17.6819 21.5216 17.7328 21.5046 17.7611 21.4707H17.7724L17.9307 21.793H17.9251C17.7894 21.7421 17.6706 21.7817 17.5406 21.8439C17.4444 21.8891 17.3483 21.94 17.2691 22.0022L17.5236 22.5225L17.8516 22.3585C17.8968 22.3359 17.942 22.3189 17.9647 22.285H17.976L18.1173 22.5733H18.1117C18.0269 22.5168 17.9138 22.579 17.8233 22.6186L17.6141 22.7204L17.9364 23.3763L18.3039 23.2349C18.4962 23.1614 18.6602 23.0088 18.7337 22.8222H18.745L18.7959 23.2462L17.7611 23.7495L17.5745 23.3593Z" fill="#005CA9"/>
<path d="M19.825 22.5336L18.8468 21.2783C18.762 21.1652 18.6376 20.973 18.4792 21.0239V21.0125L19.0504 20.5602C19.3783 20.3057 19.6893 20.3397 19.8646 20.5602C20.0343 20.7751 19.9721 21.0917 19.8137 21.2896L20.5092 21.4593C20.7128 21.5045 20.9616 21.5102 21.1708 21.4932L20.9447 21.6685C20.8146 21.7703 20.7128 21.7985 20.5658 21.7703L19.9834 21.6346L19.4914 21.4649C19.6611 21.284 19.8194 21.0182 19.6384 20.7864C19.5027 20.6111 19.2709 20.628 19.1126 20.7637C19.0617 20.809 19.0108 20.8599 18.9599 20.9108L20.0795 22.3414L19.8307 22.5336H19.825Z" fill="#005CA9"/>
<path d="M21.1143 19.0504C20.9446 19.0617 20.7693 19.1691 20.6562 19.2992C20.5432 19.4349 20.4527 19.6498 20.6223 19.7855C20.9503 20.0513 21.6175 19.2257 22.0586 19.5932C22.313 19.8025 22.3357 20.2661 22.0303 20.6393C21.9116 20.7864 21.7702 20.9108 21.6062 21.0069L21.25 20.8316C21.4875 20.7864 21.725 20.6563 21.8776 20.4697C21.9907 20.334 22.0756 20.0569 21.9116 19.9212C21.5384 19.6159 20.9333 20.4923 20.4244 20.0739C20.1247 19.8251 20.2604 19.4236 20.5036 19.1352C20.5997 19.0165 20.7185 18.909 20.8485 18.8242L21.1199 19.0447L21.1143 19.0504Z" fill="#005CA9"/>
<path d="M24.558 15.0019L23.6815 14.8775L22.7881 15.2677C22.641 15.3299 22.5336 15.3751 22.4318 15.5108L22.4997 15.0528L23.461 14.64L22.9464 14.1763C22.8785 14.1141 22.7428 14.0237 22.6354 14.1763H22.6241L22.7032 13.6392L23.7267 14.5552L24.6032 14.6796L24.558 14.9906V15.0019Z" fill="#005CA9"/>
<path d="M21.7307 17.3482L22.0134 17.5687V17.5574C21.9681 17.4387 21.9908 17.2917 22.036 17.1673L22.1378 16.9128L23.8285 17.5744L23.9416 17.2804L22.2565 16.6188L22.3583 16.3587C22.3979 16.2625 22.4544 16.1551 22.5675 16.1551V16.1438L22.2848 15.9346L21.7363 17.3369L21.7307 17.3482Z" fill="#005CA9"/>
<path d="M13.0508 0C5.84685 0 0 5.84685 0 13.0508C0 20.2548 5.84685 26.1186 13.0508 26.1186C20.2548 26.1186 26.1129 20.2717 26.1129 13.0508C26.1129 5.82989 20.2661 0 13.0508 0ZM13.0508 25.7284C6.06173 25.7284 0.384512 20.0512 0.384512 13.0508C0.384512 6.05042 6.06173 0.384512 13.0508 0.384512C20.0399 0.384512 25.7228 6.05607 25.7228 13.0452C25.7228 20.0342 20.0512 25.7228 13.0508 25.7228V25.7284Z" fill="#005CA9"/>
<path d="M21.544 13.0509C21.544 17.7386 17.7441 21.5385 13.0564 21.5385C8.36878 21.5385 4.5802 17.7386 4.5802 13.0509C4.5802 8.36329 8.37443 4.57471 13.0564 4.57471C17.7384 4.57471 21.544 8.37459 21.544 13.0509Z" fill="#005CA9"/>
<path d="M3.14392 10.9023C3.14392 11.0946 2.98559 11.2529 2.79333 11.2529C2.60108 11.2529 2.44275 11.0946 2.44275 10.9023C2.44275 10.7101 2.60108 10.5518 2.79333 10.5518C2.98559 10.5518 3.14392 10.7101 3.14392 10.9023Z" fill="#005CA9"/>
<path d="M23.7267 10.9023C23.7267 11.0946 23.5684 11.2529 23.3761 11.2529C23.1838 11.2529 23.0255 11.0946 23.0255 10.9023C23.0255 10.7101 23.1838 10.5518 23.3761 10.5518C23.5684 10.5518 23.7267 10.7101 23.7267 10.9023Z" fill="#005CA9"/>
<path d="M11.5467 5.80713L7.98426 11.0263C7.98426 11.0263 7.11911 12.1007 7.83724 13.5087L9.69195 16.3699C9.69195 16.3699 10.0086 16.9354 10.6645 16.9354H12.0556C12.0556 16.9354 11.835 16.8506 11.6993 16.6526L9.62975 13.4691C9.62975 13.4691 9.29613 12.9263 9.31875 12.3778C9.31875 12.3778 9.34136 11.8971 9.62409 11.4391L11.5636 8.52699L13.8594 12.0837C13.8594 12.0837 14.1195 12.4739 13.8424 12.7849C13.8424 12.7849 13.6728 12.9602 13.2543 12.8245L14.0573 14.0628C14.0573 14.0628 14.2043 14.2607 14.4418 14.2607C14.4418 14.2607 14.6114 14.2607 14.7698 14.0685L15.3635 13.1072C15.3635 13.1072 15.7989 12.5361 15.3409 11.6427L11.5467 5.80713Z" fill="#C59600"/>
<path d="M16.2343 16.4662L17.9985 13.8029C17.9985 13.8029 18.8637 12.7285 18.1456 11.3205L14.9507 6.38968C14.9507 6.38968 14.6341 5.82422 13.9781 5.82422H12.5814C12.5814 5.82422 12.802 5.90904 12.9377 6.10695L16.2795 11.1961C16.2795 11.1961 16.7263 11.8746 16.6641 12.4514C16.6641 12.4514 16.6414 12.932 16.3587 13.3901L15.2052 15.1939C15.0129 15.4427 14.8093 15.4483 14.8093 15.4483H14.1082C13.8763 15.4257 13.7124 15.1543 13.7124 15.1543L12.1178 12.7398C12.1178 12.7398 11.8576 12.3496 12.1347 12.0386C12.1347 12.0386 12.3044 11.8633 12.7228 11.999L11.9199 10.7607C11.9199 10.7607 11.7785 10.5628 11.541 10.5628C11.541 10.5628 11.3714 10.5628 11.213 10.755L10.6193 11.7163C10.6193 11.7163 10.1839 12.2874 10.6419 13.1808L12.785 16.4775C12.785 16.4775 13.079 16.9355 13.5088 16.9355H15.437C15.437 16.9355 15.9176 16.9468 16.2343 16.4605V16.4662Z" fill="#C59600"/>
<path d="M10.8907 20.0454H10.608V18.2133L10.2857 18.4282V18.1568C10.3536 18.1285 10.5628 17.9702 10.6476 17.9023H10.8907V20.0511V20.0454Z" fill="white"/>
<path d="M12.7624 18.9823C12.7624 19.5421 12.7624 20.0963 12.1857 20.0963C11.8634 20.0963 11.6485 19.8757 11.6598 19.5365H11.9425C11.9425 19.6948 12.0047 19.8588 12.1857 19.8588C12.4628 19.8588 12.4797 19.5534 12.4797 19.0049H12.4741C12.4062 19.152 12.2705 19.2085 12.1065 19.2085C11.9425 19.2085 11.6146 19.118 11.6146 18.53C11.6146 18.0493 11.9029 17.874 12.1857 17.874C12.7738 17.874 12.7624 18.4112 12.7624 18.988V18.9823ZM11.8973 18.5186C11.8973 18.7335 11.9369 18.9654 12.1857 18.9654C12.4345 18.9654 12.4741 18.7335 12.4741 18.5186C12.4741 18.3264 12.4345 18.0719 12.1857 18.0719C11.9369 18.0719 11.8973 18.3207 11.8973 18.5186Z" fill="white"/>
<path d="M13.0904 17.9023H14.2043V18.1511L13.6332 20.0511H13.3109L13.9103 18.1511H13.096V17.9023H13.0904Z" fill="white"/>
<path d="M15.0186 18.7958C15.2731 18.8184 15.4597 18.7166 15.4597 18.4396C15.4597 18.2417 15.3749 18.1003 15.1656 18.1003C14.9281 18.1003 14.8942 18.2756 14.8942 18.4509H14.6115C14.5889 18.0833 14.7642 17.8628 15.1656 17.8628C15.5275 17.8628 15.7481 18.0437 15.7481 18.4169C15.7481 18.8241 15.4484 18.8863 15.324 18.9145C15.6632 18.9654 15.7707 19.1464 15.7707 19.4687C15.7707 19.8871 15.5445 20.085 15.1317 20.085C14.5323 20.085 14.5776 19.5705 14.5776 19.4461H14.8603C14.8603 19.661 14.8999 19.8476 15.1543 19.8476C15.4088 19.8476 15.4823 19.6892 15.4823 19.463C15.4823 19.1181 15.3522 19.0446 15.0186 19.0446V18.7901V18.7958Z" fill="white"/>
<path d="M35.0755 19.5197H32.8023L31.9768 21.7419H31.2021L33.2321 16.6811C33.3565 16.3588 33.5261 15.9799 33.0964 15.8442V15.8159H34.5213L36.393 20.4357C36.6022 20.9503 36.7606 21.4479 37.2751 21.7419H35.9237L35.0698 19.5197H35.0755ZM33.9276 16.5793L33.0342 18.8524H34.8097L33.9276 16.5793Z" fill="#231916"/>
<path d="M37.7332 17.0823C37.7332 16.6696 37.7897 16.0136 37.326 15.8383V15.8101H39.0507V15.8383C38.5983 16.008 38.6549 16.6639 38.6549 17.0823V22.1941C38.6549 23.1497 38.0498 23.6982 36.9132 23.783L36.8737 23.7604C37.637 23.0988 37.7332 22.6069 37.7332 21.6286V17.0767V17.0823Z" fill="#231916"/>
<path d="M45.8984 18.7166C45.8984 20.5544 44.3773 21.8889 42.5791 21.8889C40.781 21.8889 39.2881 20.6109 39.2881 18.7619C39.2881 17.0485 40.7753 15.6179 42.6696 15.6632C44.5639 15.6575 45.8984 17.0938 45.8984 18.7166ZM40.3173 18.6771C40.3173 19.938 41.2107 21.2386 42.6244 21.2386C44.038 21.2386 44.8692 20.2377 44.8692 18.8976C44.8692 17.5574 44.0323 16.3134 42.6074 16.3134C41.1824 16.3134 40.3173 17.32 40.3173 18.6827V18.6771Z" fill="#231916"/>
<path d="M50.2693 21.7532V21.1539C49.8735 21.6741 49.1328 21.8946 48.5051 21.8946C47.9114 21.8946 47.2781 21.708 46.8766 21.2669C46.4016 20.7411 46.4186 20.1417 46.4186 19.4914V17.0882C46.4186 16.6811 46.4808 16.0251 46.0341 15.8159H47.3629L47.3403 17.0882V19.4914C47.3403 20.6902 47.8435 21.25 48.7765 21.25C49.2798 21.25 49.7944 21.0408 50.0941 20.6223C50.292 20.3509 50.2807 20.1247 50.2807 19.8024V17.0882C50.2807 16.6811 50.3372 16.0251 49.8848 15.8159H51.2193L51.2024 17.0939V21.7532H50.2807H50.2693Z" fill="#231916"/>
<path d="M59.837 21.7306V21.1595C59.4412 21.6854 58.7004 21.9003 58.0727 21.9003C57.479 21.9003 56.8457 21.708 56.4442 21.2726C55.9692 20.7467 55.9862 20.1473 55.9862 19.4971V17.0882C55.9862 16.6811 56.0484 16.0251 55.6017 15.8159H56.9305L56.9079 17.0882V19.4971C56.9079 20.6958 57.4112 21.25 58.3385 21.25C58.8474 21.25 59.3563 21.0464 59.656 20.6223C59.8539 20.3509 59.8426 20.1304 59.8426 19.8024V17.0882C59.8426 16.6811 59.8992 16.0251 59.4468 15.8159H60.7813L60.7643 17.0939V21.725H59.8483L59.837 21.7306Z" fill="#231916"/>
<path d="M66.7525 16.9806V22.0358C66.1136 21.8209 65.8365 21.5212 65.435 21.0123L62.342 17.088V21.7248H61.6917V16.9806C61.6917 16.4773 61.6917 16.1154 61.2224 15.844V15.8157H62.5399C62.5738 15.9288 62.6134 15.974 62.6756 16.0476L62.8 16.2285L66.0966 20.3903V16.9749C66.0966 16.4716 66.1079 16.0758 65.6273 15.8101H66.7582L66.7469 16.9749L66.7525 16.9806Z" fill="#231916"/>
<path d="M67.8382 21.725V17.0599C67.8382 16.6471 67.9004 15.9856 67.4424 15.8159H68.7542V21.725H67.8325H67.8382Z" fill="#231916"/>
<path d="M89.4953 21.725V17.0599C89.4953 16.6471 89.5575 15.9856 89.0995 15.8159H90.417V17.0599V21.725H89.501H89.4953Z" fill="#231916"/>
<path d="M73.3062 17.4442C73.5494 16.8053 73.8547 16.0645 73.2949 15.844V15.8157H74.6351L72.2545 22.0132C71.6211 21.6004 71.4119 21.5269 71.1518 20.8144L69.7891 17.1276C69.6194 16.6696 69.4837 16.1437 69.0879 15.8383V15.8101H70.4054L70.3941 15.9175C70.3941 16.1154 70.5637 16.5565 70.6372 16.7544L72.0679 20.673L73.2949 17.4386L73.3062 17.4442Z" fill="#231916"/>
<path d="M75.3871 20.4811V17.0827C75.3871 16.6699 75.438 16.0139 74.98 15.8386V15.8104H77.8638C78.0165 15.8104 78.1692 15.8217 78.2879 15.7651H78.3162V16.8169H78.2879C78.0108 16.4946 77.6376 16.455 77.2249 16.455C76.9082 16.455 76.5915 16.4663 76.3032 16.5172V18.191H77.3775C77.5245 18.191 77.6659 18.191 77.7734 18.1401H77.8016V19.0957H77.7734C77.632 18.8356 77.2531 18.8412 76.9704 18.8412H76.3032V20.9787L77.451 21.0918C78.0448 21.1427 78.6668 20.9561 79.1191 20.5602H79.1474L78.7459 21.7364H75.3815L75.3928 20.4754L75.3871 20.4811Z" fill="#231916"/>
<path d="M79.6563 21.7363V17.0882C79.6563 16.6754 79.7185 16.0195 79.2605 15.8442V15.8159H81.4036C82.608 15.8159 83.2696 16.4436 83.2696 17.2635C83.2696 18.0834 82.5741 18.6771 81.8333 18.8524L83.1282 20.481C83.5071 20.9503 84.0726 21.4196 84.5871 21.7419H83.7559C83.2809 21.7419 82.9812 21.6288 82.7098 21.2896L81.6072 19.9268L80.7816 18.6545C81.4997 18.5471 82.3423 18.2135 82.3423 17.3653C82.3423 16.715 81.7824 16.3361 81.1774 16.3644C80.9682 16.3701 80.7703 16.3983 80.5611 16.4323V21.725H79.6394L79.6563 21.7363Z" fill="#231916"/>
<path d="M88.3983 16.8732C88.0477 16.5113 87.4879 16.3077 86.9846 16.3077C86.4814 16.3077 85.8198 16.5056 85.8198 17.1276C85.8198 18.3603 88.9185 18.3434 88.9185 20.0115C88.9185 20.9784 87.912 21.8775 86.504 21.8775C85.9555 21.8775 85.407 21.7983 84.8924 21.6061L84.6323 20.4808C85.1639 20.9388 85.9046 21.2329 86.6058 21.2329C87.1203 21.2329 87.895 20.9275 87.895 20.2942C87.895 18.8862 84.7963 19.1407 84.7963 17.2294C84.7963 16.0928 85.9612 15.6631 87.0582 15.6631C87.5105 15.6631 87.9685 15.7253 88.3983 15.861V16.8788V16.8732Z" fill="#231916"/>
<path d="M98.0395 21.736V19.1518L96.5467 16.7486C96.3035 16.3528 96.1226 16.0531 95.6928 15.8213H97.033L98.6275 18.4281L99.7415 16.7486C99.8942 16.5225 100.103 16.0871 99.5945 15.8496V15.8213H101.172L98.9555 19.1518V21.736H98.0338H98.0395Z" fill="#231916"/>
<path d="M91.0673 15.8159L90.7733 16.8168H90.8015C91.0786 16.5567 91.4857 16.4549 91.8702 16.4549H92.6619V21.7476H93.5836V16.4549H94.3922C94.6862 16.4549 95.0481 16.5001 95.1669 16.8168H95.1952L95.4666 15.8159H91.0673Z" fill="#231916"/>
<path d="M43.4952 3.20605H41.533V14.029H43.4952V6.56488H45.6609V5.01553H43.4952V3.20605Z" fill="#231916"/>
<path d="M70.4902 5.01568H69.15V3.20621H67.1879V8.71944H62.5172L62.4493 8.63462V4.73295H66.1192V3.18359H60.6003V9.14354C60.6003 9.7712 61.1092 10.2745 61.7312 10.2745C61.7369 10.2745 61.7482 10.2745 61.7538 10.2745H67.1935V14.0121H69.1557V6.5707H70.4958V14.0121H72.4523V3.20621H70.4958V5.01568H70.4902Z" fill="#231916"/>
<path d="M86.1704 3.17773H84.3779V8.32342H86.1704V6.43478H88.223V5.07202H86.1704V3.17773Z" fill="#231916"/>
<path d="M46.2941 10.3368H51.6773V14.0066H53.6394V10.3368H59.0226V8.78174H46.2941V10.3368Z" fill="#231916"/>
<path d="M52.6612 6.03916C53.5942 7.679 55.5563 7.66769 55.5563 7.66769H58.4628V6.32189H56.2349C56.2349 6.32189 54.4876 6.38975 54.007 4.73295H58.4628V3.18359H46.8596V4.73295H51.3154C50.8347 6.38409 49.0875 6.32189 49.0875 6.32189H46.8596V7.66769H49.766C49.766 7.66769 51.7282 7.679 52.6668 6.03916H52.6612Z" fill="#231916"/>
<path d="M99.928 11.6936V4.34258C99.928 4.34258 99.928 4.32562 99.928 4.31431C99.928 3.72058 99.4757 3.23993 98.8989 3.18904V3.17773H89.5801V4.72709H98.1355V11.6936H96.2582V6.44044H94.4657V11.6936H92.8485V6.44044H91.056V11.6936H88.6188V13.2429H101.41V11.6936H99.9337H99.928Z" fill="#231916"/>
<path d="M38.6039 3.44936C37.5465 2.94045 35.8953 2.96872 35.8953 2.96872C35.8953 2.96872 34.2442 2.93479 33.1868 3.44936C33.1868 3.44936 31.2812 4.2297 31.2303 6.58766C31.2812 8.93997 33.1868 9.72031 33.1868 9.72031C34.2442 10.2349 35.8953 10.201 35.8953 10.201C35.8953 10.201 37.5465 10.2349 38.6039 9.72031C38.6039 9.72031 40.5095 8.93997 40.5604 6.58766C40.5095 4.23535 38.6039 3.44936 38.6039 3.44936ZM37.4673 8.29535C36.851 8.57243 35.8953 8.55546 35.8953 8.55546C35.8953 8.55546 34.934 8.57243 34.3177 8.29535C34.3177 8.29535 33.2094 7.8656 33.1811 6.58201C33.215 5.29842 34.3177 4.86301 34.3177 4.86301C34.9284 4.58594 35.8953 4.6029 35.8953 4.6029C35.8953 4.6029 36.851 4.58594 37.4673 4.86301C37.4673 4.86301 38.5756 5.29276 38.6039 6.58201C38.5756 7.8656 37.4673 8.29535 37.4673 8.29535Z" fill="#231916"/>
<path d="M86.1647 10.314C86.1647 9.69202 85.6615 9.18876 85.0451 9.18311H74.8838V10.6081H84.3779V14.0347H86.1704V10.3253L86.1647 10.314Z" fill="#231916"/>
<path d="M74.9177 5.88068C74.9177 5.88068 74.9177 6.70625 75.2514 7.22082C75.2514 7.22082 75.6811 7.96722 76.7046 8.28388C77.2135 8.44221 77.8921 8.47048 78.8138 8.47048C79.7355 8.47048 80.4084 8.43655 80.9173 8.28388C81.9407 7.96722 82.3705 7.22082 82.3705 7.22082C82.7041 6.70625 82.7041 5.88068 82.7041 5.88068C82.7041 5.88068 82.7041 5.23605 82.4723 4.73279H83.4336V3.18343H79.7072V2.32959H77.9147V3.18343H74.1883V4.73279H75.1496C74.9177 5.23605 74.9177 5.88068 74.9177 5.88068ZM80.8664 6.50268C80.8664 6.50268 80.6628 6.84761 80.1878 6.99463C79.9503 7.06814 79.2379 7.0851 78.8138 7.0851C78.3897 7.0851 77.7337 7.06814 77.4962 6.99463C77.0212 6.84761 76.8177 6.50268 76.8177 6.50268C76.6594 6.26519 76.6594 5.88068 76.6594 5.88068C76.6594 5.88068 76.6594 5.49616 76.8177 5.25302C76.8177 5.25302 77.0212 4.90809 77.4962 4.76107C77.7337 4.68756 78.3897 4.67059 78.8138 4.67059C79.2379 4.67059 79.956 4.68756 80.1878 4.76107C80.6628 4.90809 80.8664 5.25302 80.8664 5.25302C81.0247 5.49051 81.0247 5.88068 81.0247 5.88068C81.0247 5.88068 81.0247 6.26519 80.8664 6.50268Z" fill="#231916"/>
</g>
<defs>
<clipPath id="clip0_51_287">
<rect width="101.5" height="26.1129" fill="white"/>
</clipPath>
</defs>
</svg>
