<svg width="124" height="29" viewBox="0 0 124 29" fill="none" xmlns="http://www.w3.org/2000/svg">
<g clip-path="url(#clip0_51_356)">
<path d="M37.1982 22.9391C37.1982 22.9391 36.0266 22.2645 35.9628 22.155C35.9628 22.155 35.8397 22.0456 35.8397 21.8815C35.8397 21.8815 35.7941 21.5123 36.0995 21.3527C36.0995 21.3527 36.2272 21.1932 36.7377 21.1932C36.7377 21.1932 37.1298 21.1932 37.4534 21.4166L37.4261 20.9561C37.4261 20.9561 36.4916 20.7328 35.9856 20.9789C35.4796 21.2342 35.3565 21.6126 35.3565 21.877C35.3565 22.1414 35.5069 22.5334 35.9126 22.7568C35.9126 22.7568 36.9566 23.281 37.2164 23.591C37.2164 23.591 37.458 23.9283 37.221 24.3523C37.221 24.3523 36.9657 24.717 36.4004 24.717C36.4004 24.717 35.785 24.717 35.4021 24.4982L35.4385 24.9267C35.4385 24.9267 35.9947 25.0133 36.405 25.0133C36.405 25.0133 37.0796 25.0361 37.4124 24.7762C37.4124 24.7762 37.8409 24.4526 37.8409 23.9511C37.8409 23.9511 37.9275 23.3585 37.1982 22.9346" fill="#19398A"/>
<path d="M39.2267 24.6165V22.8796H40.4986C40.6217 22.8796 40.6855 22.9298 40.6855 22.9298V22.5742H39.2267V21.2477H40.5442C40.6581 21.2477 40.7539 21.3206 40.7539 21.3206L40.7402 20.8921H38.7071C38.7071 20.8921 38.78 21.0243 38.78 21.193V24.6803C38.78 24.6803 38.7937 24.7395 38.7025 24.9401H40.8906L40.9499 24.5435C40.8542 24.621 40.5578 24.6165 40.5578 24.6165H39.2313H39.2267Z" fill="#19398A"/>
<path d="M43.6714 24.6122C42.8007 24.6122 42.0941 23.8464 42.0941 22.8982C42.0941 21.95 42.8007 21.1842 43.6714 21.1842C44.5421 21.1842 45.2486 21.95 45.2486 22.8982C45.2486 23.8464 44.5466 24.6122 43.6714 24.6122ZM43.6714 20.8696C42.5636 20.8696 41.6656 21.7768 41.6656 22.8982C41.6656 24.0196 42.5636 24.9222 43.6714 24.9222C44.7791 24.9222 45.6817 24.0151 45.6817 22.8982C45.6817 21.7813 44.7837 20.8696 43.6714 20.8696Z" fill="#19398A"/>
<path d="M72.1991 24.6122C71.3284 24.6122 70.6218 23.8464 70.6218 22.8982C70.6218 21.95 71.3284 21.1842 72.1991 21.1842C73.0698 21.1842 73.7764 21.95 73.7764 22.8982C73.7764 23.8464 73.0698 24.6122 72.1991 24.6122ZM72.1991 20.8696C71.0913 20.8696 70.1933 21.7768 70.1933 22.8982C70.1933 24.0196 71.0913 24.9222 72.1991 24.9222C73.3068 24.9222 74.2094 24.0151 74.2094 22.8982C74.2094 21.7813 73.3114 20.8696 72.1991 20.8696Z" fill="#19398A"/>
<path d="M49.7708 20.8921H49.2329L49.3012 21.0972V23.5543C49.3012 24.1652 48.8089 24.6575 48.1981 24.6575C47.5872 24.6575 47.0949 24.1652 47.0949 23.5543V23.4996V20.9103L46.6618 20.9012V23.568C46.6709 24.3521 47.3593 24.9812 48.2026 24.9812C49.046 24.9812 49.7434 24.3384 49.7434 23.5452V21.0927C49.7434 21.0061 49.789 20.8966 49.789 20.8966" fill="#19398A"/>
<path d="M51.4301 24.644V21.1521C51.4301 20.9789 51.4985 20.9014 51.4985 20.9014H50.9332C50.9925 20.9834 50.9788 21.0746 50.9788 21.0746V24.9403H53.1441L53.2718 24.5756C53.1396 24.6531 52.9253 24.644 52.9253 24.644H51.4301Z" fill="#19398A"/>
<path d="M84.717 24.644V21.1521C84.717 20.9789 84.7854 20.9014 84.7854 20.9014H84.2247C84.2839 20.9834 84.2703 21.0746 84.2703 21.0746V24.9403H86.431L86.5587 24.5756C86.4265 24.6531 86.2122 24.644 86.2122 24.644H84.7216H84.717Z" fill="#19398A"/>
<path d="M59.5079 21.1749V24.0103L56.6816 20.8877H56.2258C56.2258 20.8877 56.3078 20.9834 56.3078 21.1977V24.6485C56.3078 24.6485 56.2987 24.8218 56.2485 24.9221H56.6953C56.6451 24.8172 56.6451 24.6303 56.6451 24.6303V21.453L59.8179 24.8993V21.1567C59.8179 21.0381 59.8726 20.8877 59.8726 20.8877H59.4441C59.5216 20.9652 59.5125 21.1749 59.5125 21.1749" fill="#19398A"/>
<path d="M78.3942 21.1749V24.0103L75.5679 20.8877H75.1075C75.1075 20.8877 75.1895 20.9834 75.1895 21.1977V24.6485C75.1895 24.6485 75.1804 24.8218 75.1303 24.9221H75.577C75.5269 24.8172 75.5269 24.6303 75.5269 24.6303V21.453L78.7042 24.8993V21.1567C78.7042 21.0381 78.7635 20.8877 78.7635 20.8877H78.3258C78.4033 20.9652 78.3942 21.1749 78.3942 21.1749Z" fill="#19398A"/>
<path d="M61.7508 23.0802L62.3935 21.4482L63.1685 23.0802H61.7508ZM62.6443 20.8921H62.1291C62.1291 20.8921 62.1975 21.0608 62.1474 21.2294L60.8391 24.5618C60.8391 24.5618 60.6795 24.8763 60.5883 24.9447H61.0761C61.0487 24.817 61.1217 24.694 61.1217 24.694L61.6596 23.3902H63.3098L63.866 24.539C63.9571 24.776 63.9343 24.9401 63.9343 24.9401H64.6273C64.3674 24.6028 64.258 24.3566 64.258 24.3566L62.6443 20.8921Z" fill="#19398A"/>
<path d="M80.8103 23.0802L81.453 21.4482L82.228 23.0802H80.8148H80.8103ZM81.5989 20.8921H81.0838C81.0838 20.8921 81.1522 21.0608 81.102 21.2294L79.7937 24.5618C79.7937 24.5618 79.6342 24.8763 79.543 24.9447H80.0262C79.9989 24.817 80.0718 24.694 80.0718 24.694L80.6052 23.3902H82.2554L82.8115 24.539C82.9072 24.776 82.8845 24.9401 82.8845 24.9401H83.5728C83.313 24.6028 83.2036 24.3566 83.2036 24.3566L81.5944 20.8921H81.5989Z" fill="#19398A"/>
<path d="M64.7139 20.9014H64.682L64.5862 21.2569C64.5862 21.2569 64.6728 21.2114 64.837 21.2114H65.9265V24.7215L65.89 24.954H66.4735C66.4735 24.954 66.4097 24.8172 66.4097 24.7124V21.2205H67.2576C67.2576 21.2205 67.5767 21.2205 67.7134 21.3071L67.6359 20.9059H64.7139V20.9014Z" fill="#19398A"/>
<path d="M69.2132 20.8921H68.6571C68.6571 20.8921 68.7254 21.0061 68.7254 21.1155V24.6712C68.7254 24.6712 68.7163 24.8353 68.6571 24.9492H69.2132C69.2132 24.9492 69.1448 24.8353 69.1448 24.662V21.1063L69.2132 20.8921Z" fill="#19398A"/>
<path d="M113.14 22.9164C113.14 22.9164 111.968 22.2463 111.904 22.1369C111.904 22.1369 111.781 22.0275 111.781 21.8634C111.781 21.8634 111.74 21.4941 112.041 21.3346C112.041 21.3346 112.169 21.175 112.679 21.175C112.679 21.175 113.071 21.175 113.4 21.3939L113.372 20.9334C113.372 20.9334 112.438 20.7101 111.932 20.9608C111.426 21.2115 111.303 21.5899 111.303 21.8588C111.303 22.1278 111.453 22.5153 111.859 22.7386C111.859 22.7386 112.903 23.2629 113.158 23.5729C113.158 23.5729 113.404 23.9102 113.167 24.3342C113.167 24.3342 112.912 24.6988 112.347 24.6988C112.347 24.6988 111.731 24.6988 111.348 24.48L111.385 24.9085C111.385 24.9085 111.941 24.9952 112.356 24.9952C112.356 24.9952 113.03 25.0179 113.363 24.7535C113.363 24.7535 113.792 24.4299 113.792 23.933C113.792 23.933 113.874 23.3358 113.144 22.9119" fill="#19398A"/>
<path d="M105.103 24.6119V22.8705H106.375C106.498 22.8705 106.562 22.9207 106.562 22.9207V22.5605H105.103V21.2385H106.416C106.53 21.2385 106.626 21.3069 106.626 21.3069L106.607 20.8784H104.579C104.579 20.8784 104.652 21.0106 104.652 21.1793V24.6621C104.652 24.6621 104.665 24.7259 104.574 24.9265H106.762L106.822 24.5253C106.726 24.6074 106.425 24.6028 106.425 24.6028H105.098L105.103 24.6119Z" fill="#19398A"/>
<path d="M92.1111 20.8696H91.5686L91.637 21.0748V23.5319C91.637 24.1427 91.1446 24.635 90.5338 24.635C89.9229 24.635 89.4306 24.1427 89.4306 23.5319V23.4771L89.426 20.8833L88.993 20.8742V23.541C89.0067 24.325 89.6904 24.9541 90.5292 24.9541C91.368 24.9541 92.07 24.3114 92.07 23.5182V21.0702C92.07 20.9836 92.1111 20.8742 92.1111 20.8742" fill="#19398A"/>
<path d="M96.7335 21.1747V24.0102L93.9026 20.8875H93.4467C93.4467 20.8875 93.5242 20.9833 93.5242 21.193V24.6438C93.5242 24.6438 93.5151 24.8216 93.4649 24.9173H93.9117C93.8615 24.8125 93.8615 24.6256 93.8615 24.6256V21.4482L97.0389 24.8945V21.1474C97.0389 21.0334 97.0936 20.8784 97.0936 20.8784H96.6605L96.7289 21.1611" fill="#19398A"/>
<path d="M116.208 20.8877H116.176L116.08 21.2387C116.08 21.2387 116.167 21.1931 116.331 21.1931H117.42V24.7078L117.379 24.9357H117.963C117.963 24.9357 117.904 24.8035 117.904 24.6941V21.2022H118.751C118.751 21.2022 119.071 21.2022 119.207 21.2889L119.13 20.8877H116.212H116.208Z" fill="#19398A"/>
<path d="M115.301 20.8742H114.74C114.74 20.8742 114.813 20.9882 114.813 21.1021V24.6533C114.813 24.6533 114.804 24.8174 114.744 24.9313H115.296C115.296 24.9313 115.228 24.8174 115.228 24.6441V21.0884L115.296 20.8696" fill="#19398A"/>
<path d="M99.0902 20.8742H98.5295C98.5295 20.8742 98.5979 20.9882 98.5979 21.1021V24.6533C98.5979 24.6533 98.5842 24.8174 98.5295 24.9313H99.0857C99.0857 24.9313 99.0173 24.8174 99.0173 24.6441V21.0884L99.0902 20.8696" fill="#19398A"/>
<path d="M103.275 21.1611L101.903 24.1925L100.508 21.1611C100.399 20.965 100.453 20.8784 100.453 20.8784H99.8652C99.8652 20.8784 100.016 21.1246 100.18 21.4802L101.871 25.0222L103.622 21.2659C103.622 21.2659 103.781 20.9696 103.904 20.883H103.33C103.33 20.883 103.384 20.9696 103.275 21.1656" fill="#19398A"/>
<path d="M110.314 24.3022L109.051 22.8206C109.425 22.8206 109.817 22.4879 109.817 22.4879C110.104 22.2417 110.104 21.795 110.104 21.795C110.076 21.3756 109.808 21.1659 109.808 21.1659C109.498 20.8468 108.996 20.8741 108.996 20.8741C108.212 20.8741 107.893 20.9151 107.893 20.9151C107.893 20.9151 107.957 20.9881 107.957 21.1021V24.7261C107.957 24.8264 107.911 24.9222 107.911 24.9222H108.463C108.399 24.8264 108.403 24.7353 108.403 24.7353V22.6657V21.3209L108.413 21.2798C108.413 21.2798 108.417 21.1795 108.786 21.1795C108.786 21.1795 109.197 21.175 109.37 21.3756C109.37 21.3756 109.616 21.5761 109.616 21.8314C109.616 21.8314 109.63 22.2463 109.411 22.3967C109.411 22.3967 109.147 22.6656 108.403 22.6702L110.218 24.9222H110.856C110.719 24.8082 110.304 24.3113 110.304 24.3113" fill="#19398A"/>
<path d="M122.248 21.038L121.377 22.5196L120.452 21.0745C120.388 20.9514 120.415 20.8876 120.415 20.8876H119.759C119.759 20.8876 119.9 21.0107 119.996 21.1839L121.067 22.8478V24.7122L121.026 24.9265H121.601L121.537 24.7305V22.8569L122.508 21.3526C122.804 20.8648 122.831 20.8785 122.831 20.8785H122.275C122.275 20.9651 122.239 21.0471 122.239 21.0471" fill="#19398A"/>
<path d="M38.9168 6.16774C38.8848 5.65717 38.9031 4.70898 38.9031 4.70898H37.5127C37.5127 4.70898 37.5355 5.65717 37.499 6.16774C37.3987 7.74501 36.7605 10.2431 34.381 11.9116L35.0784 12.9373C35.0784 12.9373 37.1252 11.8204 38.2102 9.02142C39.2951 11.8158 41.3419 12.9373 41.3419 12.9373L42.0394 11.9116C39.6598 10.2477 39.0216 7.74501 38.9213 6.16774" fill="#19398A"/>
<path d="M59.4441 4.08465C60.1644 4.08465 60.7433 4.67271 60.7433 5.38841C60.7433 6.10411 60.1644 6.68761 59.4441 6.68761C58.7239 6.68761 58.1449 6.10411 58.1449 5.38841C58.1449 4.67271 58.7239 4.08465 59.4441 4.08465ZM59.4441 7.8774C60.8208 7.8774 61.9286 6.76511 61.9286 5.38841C61.9286 4.01171 60.8163 2.89941 59.4441 2.89941C58.072 2.89941 56.9551 4.01171 56.9551 5.38841C56.9551 6.76511 58.072 7.8774 59.4441 7.8774Z" fill="#19398A"/>
<path d="M97.0708 8.95301C97.0708 9.6368 96.5147 10.1884 95.8309 10.1884C95.1471 10.1884 94.5955 9.63224 94.5955 8.95301C94.5955 8.27378 95.1516 7.71307 95.8309 7.71307C96.5101 7.71307 97.0708 8.26922 97.0708 8.95301ZM93.3966 8.95301C93.3966 10.3024 94.4861 11.3919 95.8354 11.3919C97.1848 11.3919 98.2743 10.3024 98.2743 8.95301C98.2743 7.60366 97.1848 6.51416 95.8354 6.51416C94.4861 6.51416 93.3966 7.60822 93.3966 8.95301Z" fill="#19398A"/>
<path d="M121.008 11.3646C121.008 11.3646 120.858 13.7351 120.242 15.0935H121.555C122.152 13.4616 122.248 11.3281 122.248 11.3281V5.06006H113.532V6.22706H121.003V11.3692L121.008 11.3646Z" fill="#19398A"/>
<path d="M43.9586 16.8484H45.3262V4.08887H43.9586V7.79501H41.4741V9.04862H43.9586V16.8484Z" fill="#19398A"/>
<path d="M80.8103 9.3814H81.8405V16.8484H83.2035V4.08887H81.8405V8.13234H80.8103V4.08887H79.4427V16.8484H80.8103V9.3814Z" fill="#19398A"/>
<path d="M101.11 16.8529H102.477V12.9918V11.8248H101.985V7.5534H103.818V6.43655H101.985V4.08887H100.617V11.8248H92.9225V12.9918H101.11V16.8529Z" fill="#19398A"/>
<path d="M63.948 15.5769H56.1027V14.6151H63.948V13.79V13.4025V12.3449V11.1323H62.699H60.0687V9.53681H64.5908V8.32422H54.2336V9.53681H58.7239V11.1323H54.8718V12.3449H62.699V13.4025H54.8718V14.1319H54.8536V16.7895H54.8718H56.1027H63.948V15.5769Z" fill="#19398A"/>
<path d="M118.897 15.1074V9.42285H117.58V15.1074H116.062V9.42285H114.74V15.1074H113.03V16.2744H123.246V15.1074H118.897Z" fill="#19398A"/>
<path d="M98.9398 5.10548H96.3505V3.93848H95.0057V5.10548H92.421V6.22233H98.9398V5.10548Z" fill="#19398A"/>
<path d="M78.1253 12.8964V11.6838H74.4374V6.36395H77.952V5.15137H74.4374H73.2339H73.088V12.9055H74.4374V12.8964H78.1253Z" fill="#19398A"/>
<path d="M15.8047 3.40511C15.3625 2.42045 13.8809 3.09512 13.8809 3.09512C15.13 3.88832 15.8047 3.40511 15.8047 3.40511ZM13.3521 3.25923C13.5071 3.25923 13.6302 3.13159 13.6302 2.9766C13.6302 2.82161 13.5071 2.69853 13.3521 2.69853C13.1971 2.69853 13.0695 2.82161 13.0695 2.9766C13.0695 3.13159 13.1971 3.25923 13.3521 3.25923ZM16.7483 3.50084C16.7483 3.50084 16.2104 3.49172 15.7226 3.78347L17.2999 3.80627L17.3546 3.76524C17.3546 3.76524 16.5705 1.63637 14.4736 1.37197C14.4736 1.37197 14.9796 2.94925 16.7483 3.50084ZM17.856 3.91567C17.856 3.80171 17.7649 3.70598 17.6463 3.70598C17.5278 3.70598 17.4366 3.80171 17.4366 3.91567C17.4366 4.02964 17.5324 4.12537 17.6463 4.12537C17.7603 4.12537 17.856 4.02964 17.856 3.91567ZM9.42718 3.80627L11.0045 3.78347C10.5121 3.48716 9.97877 3.50084 9.97877 3.50084C11.7475 2.94925 12.2535 1.37197 12.2535 1.37197C10.1611 1.63181 9.37248 3.76524 9.37248 3.76524L9.42718 3.80627ZM8.91662 4.02964C8.91662 4.1436 9.01235 4.23933 9.12632 4.23933C9.24028 4.23933 9.33601 4.1436 9.33601 4.02964C9.33601 3.91567 9.24028 3.81994 9.12632 3.81994C9.01235 3.81994 8.91662 3.91567 8.91662 4.02964ZM9.04882 5.71176C7.90917 4.90489 6.24984 5.52942 6.24984 5.52942C7.72227 4.408 7.71315 2.61191 7.71315 2.61191C5.83501 3.57378 5.82589 5.84396 5.82589 5.84396C8.12342 6.52775 9.04882 5.71176 9.04882 5.71176ZM9.68246 5.26958L9.7007 4.50373C8.84824 4.25301 7.98211 4.41712 7.98211 4.41712C9.62776 3.56922 9.92863 1.80048 9.92863 1.80048C7.91373 2.42045 7.50801 4.65417 7.50801 4.65417C8.43797 5.11914 9.16278 5.26046 9.68246 5.26958ZM18.7769 4.28492C18.7769 4.28492 18.0931 4.07978 17.2269 4.37153V5.16017C17.7512 5.15105 18.2891 5.02341 19.2555 4.51285C19.2555 4.51285 18.7997 2.28825 16.7711 1.71387C16.7711 1.71387 17.113 3.47349 18.7814 4.28492M10.9178 3.49628C10.9178 3.49628 11.6108 3.95214 12.8279 3.11336C12.8279 3.11336 11.319 2.49339 10.9178 3.49628ZM21.4756 14.1543H20.5957V15.2711H21.4756V14.1543ZM19.096 6.5004L18.6401 7.04287L21.1063 9.50907L21.6078 9.00763L19.096 6.49584V6.5004ZM23.8962 6.42746L21.6351 4.1664L19.6065 6.3682L21.781 8.5153L23.8962 6.43202V6.42746ZM5.46576 6.17674C5.46576 6.2907 5.56149 6.38643 5.67546 6.38643C5.78942 6.38643 5.88515 6.2907 5.88515 6.17674C5.88515 6.06277 5.78942 5.96704 5.67546 5.96704C5.56149 5.96704 5.46576 6.06277 5.46576 6.17674ZM22.2049 8.55633C22.5924 8.66573 23.0711 8.75235 23.6546 8.77514C23.6546 8.77514 23.919 7.9865 23.805 7.02464L23.0392 7.75401C23.1212 7.95003 23.2261 8.14149 23.3537 8.33751C23.3537 8.33751 23.144 8.16429 22.8067 7.97738L22.2004 8.55633H22.2049ZM21.5211 19.6155H20.6413V20.7323H21.5211V19.6155ZM20.2356 5.14193L20.7462 4.62225C20.5274 3.88832 20.0897 3.00851 19.0002 2.47971C19.0002 2.47971 18.9547 4.04787 20.2356 5.14193ZM24.8261 12.9599C24.8261 13.0739 24.9219 13.1696 25.0358 13.1696C25.1498 13.1696 25.2455 13.0739 25.2455 12.9599C25.2455 12.846 25.1498 12.7502 25.0358 12.7502C24.9219 12.7502 24.8261 12.846 24.8261 12.9599ZM22.0727 2.58912C22.7337 2.91734 23.2625 2.57544 23.2625 2.57544C23.9965 2.21531 24.5298 2.71676 24.5298 2.71676C25.0404 3.11792 24.9583 3.64216 24.9583 3.64216C24.9583 4.04787 24.8398 4.07522 24.8398 4.07522C24.5936 4.24389 24.6575 3.96126 24.6575 3.96126L24.7122 3.76068C24.8079 2.84896 23.9919 2.71676 23.9919 2.71676C23.1212 2.56633 22.907 3.36864 22.907 3.36864C22.8523 3.59201 22.8477 3.78803 22.8705 3.96126L21.7855 2.87631L21.8357 3.79259L24.2609 6.21321H25.127L24.2472 5.3334C24.7122 5.47927 25.1179 5.49295 25.1179 5.49295C26.3533 5.41545 26.4855 4.23477 26.4855 4.23477C26.8137 2.99939 25.6421 2.00106 25.6421 2.00106C24.858 1.33095 23.6774 1.27624 23.6774 1.27624C21.9952 1.08022 21.3981 0.00439453 21.3981 0.00439453C21.202 0.492165 21.2522 1.21698 21.2522 1.21698C21.3661 2.33384 22.0727 2.59368 22.0727 2.59368M25.1224 12.618C25.1224 12.618 26.531 10.8356 25.6649 8.9119C25.6649 8.9119 24.5389 10.3068 24.9857 12.1075C24.9857 12.1075 24.0831 10.5803 22.6881 10.5028C22.6881 10.5028 22.9024 11.72 25.1224 12.6226M23.691 9.34952C23.805 9.34952 23.9007 9.25379 23.9007 9.13983C23.9007 9.02586 23.805 8.93013 23.691 8.93013C23.5771 8.93013 23.4813 9.02586 23.4813 9.13983C23.4813 9.25379 23.5771 9.34952 23.691 9.34952ZM19.4789 5.96248L20.1125 5.30605C19.5746 5.18296 18.5581 5.00062 17.7375 5.61147C17.7375 5.61147 18.1569 6.09012 19.4789 5.96248ZM24.5572 10.6305C24.5572 10.6305 25.6376 8.63382 24.4523 6.88788C24.4523 6.88788 23.5862 8.45604 24.3384 10.1473C24.3384 10.1473 23.185 8.80249 21.7947 8.9666C21.7947 8.9666 22.2141 10.129 24.5572 10.6305ZM17.1586 25.8927C17.1586 26.0066 17.2543 26.1024 17.3683 26.1024C17.4822 26.1024 17.578 26.0066 17.578 25.8927C17.578 25.7787 17.4822 25.683 17.3683 25.683C17.2543 25.683 17.1586 25.7787 17.1586 25.8927ZM18.207 25.6921C18.207 25.6921 19.3923 24.6755 19.4014 23.4037L18.9774 23.4219C18.5945 23.7593 18.0338 24.4704 17.7238 25.9155C17.7238 25.9155 19.7251 26.9959 21.4664 25.8106C21.4664 25.8106 19.8983 24.9399 18.207 25.6967M16.256 26.344C16.256 26.344 17.7831 25.4368 17.8606 24.0464C17.8606 24.0464 16.6434 24.2607 15.7408 26.4807C15.7408 26.4807 17.5187 27.8893 19.4424 27.0278C19.4424 27.0278 18.0475 25.8972 16.2514 26.3485M14.2046 26.7816C15.791 26.0477 16.142 24.8168 16.142 24.8168C14.9066 24.9035 13.849 26.7543 13.849 26.7543C15.2303 28.1629 17.0218 27.9896 17.0218 27.9896C16.2013 26.9001 14.2046 26.7862 14.2046 26.7862M13.3248 26.1343V26.654C13.0832 26.2756 12.1441 24.8989 11.082 24.8305C11.082 24.8305 11.4421 26.0613 13.033 26.7816C13.033 26.7816 11.0364 26.9138 10.2204 28.0079C10.2204 28.0079 11.9618 28.1674 13.3248 26.809V27.6569H13.8536V26.1297H13.3248V26.1343ZM20.6368 21.3204V22.4373L25.6284 26.5765H26.6268L21.5439 21.3204H20.6368ZM20.0168 24.712C20.0168 24.712 20.4727 24.1695 20.6915 23.4037L19.839 23.39C19.7023 23.8094 19.602 24.3382 19.5792 25.0129C19.5792 25.0129 21.4163 25.6237 22.8887 24.557L22.3235 24.1011C21.6944 24.0647 20.8328 24.1604 20.0168 24.712ZM10.111 25.9747C10.111 25.8608 10.0152 25.765 9.90128 25.765C9.78731 25.765 9.69158 25.8608 9.69158 25.9747C9.69158 26.0887 9.78731 26.1844 9.90128 26.1844C10.0152 26.1844 10.111 26.0887 10.111 25.9747ZM24.074 20.1306C24.074 20.1306 24.3611 18.3801 23.3446 17.4228C23.3446 17.4228 22.7292 18.4895 23.846 20.6093C23.846 20.6093 26.0706 20.1534 26.645 18.1248C26.645 18.1248 24.8854 18.4667 24.074 20.1352M22.0135 23.8368L21.275 23.235C21.2887 23.4219 21.316 23.6179 21.3479 23.8322C21.3479 23.8322 21.6123 23.8641 22.0089 23.8322M20.9012 24.1103C21.0151 24.1103 21.1109 24.0145 21.1109 23.9006C21.1109 23.7866 21.0151 23.6909 20.9012 23.6909C20.7872 23.6909 20.6915 23.7866 20.6915 23.9006C20.6915 24.0145 20.7872 24.1103 20.9012 24.1103ZM3.38704 21.056C3.38704 21.17 3.48277 21.2657 3.59674 21.2657C3.7107 21.2657 3.80643 21.17 3.80643 21.056C3.80643 20.942 3.7107 20.8463 3.59674 20.8463C3.48277 20.8463 3.38704 20.942 3.38704 21.056ZM1.85991 16.9989C3.59674 15.3486 3.35513 14.1406 3.35513 14.1406C2.08328 14.7241 1.79609 16.4746 1.79609 16.4746C1.5636 14.6375 2.13692e-06 13.7486 2.13692e-06 13.7486C-0.104846 15.8546 1.85535 16.9989 1.85535 16.9989M1.86447 17.2906C1.86447 17.4046 1.9602 17.5003 2.07416 17.5003C2.18813 17.5003 2.28386 17.4046 2.28386 17.2906C2.28386 17.1766 2.19269 17.0809 2.07416 17.0809C1.95564 17.0809 1.86447 17.1766 1.86447 17.2906ZM4.85035 4.20742L3.23205 2.57089C2.22916 1.56799 1.03936 2.22899 1.03936 2.22899L4.23038 5.40633C4.44463 4.59034 4.85035 4.20742 4.85035 4.20742ZM3.60585 5.21031L0.847901 2.45692C0.847901 2.45692 -0.305424 3.28203 0.59262 5.21031H3.60129H3.60585ZM2.4115 18.9864C3.83378 17.0627 3.38704 15.9139 3.38704 15.9139C2.23827 16.7071 2.26107 18.4804 2.26107 18.4804C1.70492 16.7117 0.0182365 16.1054 0.0182365 16.1054C0.278077 18.1978 2.4115 18.9864 2.4115 18.9864ZM3.68791 24.443C3.68791 24.443 4.01157 24.247 4.48566 24.1786L3.96142 24.0556L1.63654 26.5035C1.63654 26.5035 1.37214 26.8865 1.62286 27.1372C1.62286 27.1372 1.85535 27.3286 2.17901 27.1098L4.44464 25.1268C4.21671 25.0083 3.71526 24.5935 3.68791 24.4476M8.09607 23.4493H7.79976C7.78153 24.7621 9.04882 25.8015 9.04882 25.8015C7.33935 25.0858 5.78942 25.993 5.78942 25.993C7.56272 27.1372 9.53203 26.0112 9.53203 26.0112C9.14911 24.4111 8.47444 23.7273 8.09151 23.4538M3.29587 20.8509C4.36258 18.7083 3.72438 17.6553 3.72438 17.6553C2.7306 18.6354 3.05882 20.3813 3.05882 20.3813C2.21092 18.7357 0.442186 18.4348 0.442186 18.4348C1.06216 20.4497 3.30043 20.8554 3.30043 20.8554M9.3588 24.1467C9.47277 25.5417 11.0181 26.4078 11.0181 26.4078C9.21293 26.0021 7.84535 27.16 7.84535 27.16C9.78731 27.9805 11.5378 26.5309 11.5378 26.5309C10.5851 24.3336 9.36336 24.1467 9.36336 24.1467M4.37626 7.31639C6.75584 7.5899 7.52625 6.62348 7.52625 6.62348C6.26807 6.0263 4.74094 6.92891 4.74094 6.92891C5.99912 5.57044 5.67546 3.80627 5.67546 3.80627C3.99333 5.07811 4.37626 7.31639 4.37626 7.31639ZM4.49022 22.533C5.16945 20.2355 4.35346 19.3101 4.35346 19.3101C3.54659 20.4452 4.17112 22.109 4.17112 22.109C3.0497 20.6366 1.25362 20.6457 1.25362 20.6457C2.21548 22.5239 4.48566 22.533 4.48566 22.533M21.8858 20.6548C21.8858 20.6548 21.7354 20.8098 21.6898 21.0469L22.132 21.5073C22.1092 21.2201 22.0363 20.9284 21.8858 20.6548ZM7.08406 11.4647L7.90005 12.185H9.74173C9.65511 12.0391 9.68246 11.4829 9.68246 11.4829L7.08862 11.4693L7.08406 11.4647ZM11.6518 6.08101V5.05532H14.8519V6.52319H15.9095V7.58079H14.8838V8.05032H15.9095V9.19453H14.8838V12.6317H14.004L12.7869 11.41L11.67 12.5269L10.8631 11.72L12.7139 9.8692L13.6667 10.8219V6.08101H11.6563H11.6518ZM10.0061 11.0043C10.0061 13.4431 11.5333 14.5691 13.4205 14.5691C15.3078 14.5691 16.8395 13.4477 16.8395 11.0043V4.05699H10.0107C10.0107 4.05699 10.0107 8.57 10.0107 11.0043M7.48522 6.99273C7.48522 6.99273 7.28008 7.29359 6.496 7.46226L7.48522 8.37854V6.99273ZM16.2195 17.1402C16.4429 17.1402 16.4429 16.9715 16.4429 16.8028V15.2164H16.8987V16.894C16.8987 17.1402 16.8714 17.555 16.2149 17.555C15.791 17.555 15.5357 17.359 15.5357 16.9259V15.2164H15.9916V16.7071C15.9916 16.8803 15.9688 17.1447 16.2195 17.1447M17.3911 18.0154V18.4439H16.9306V18.9454H17.3363V19.3739H16.9306V19.8936H17.4002V20.3221H16.4793V18.02H17.3956L17.3911 18.0154ZM17.2634 15.2119H17.774L17.9062 15.531C17.9472 15.6449 17.9928 15.7635 18.0156 15.882H18.0201C18.0429 15.7635 18.084 15.6495 18.125 15.531L18.2617 15.2119H18.7541L18.2617 16.3287L18.7905 17.5185H18.2617L18.1159 17.1538C18.0748 17.0353 18.0429 16.9259 18.011 16.8074H18.0065C17.9746 16.9214 17.9472 17.0353 17.9062 17.1538L17.7694 17.5185H17.2589L17.7466 16.3287L17.2589 15.2119H17.2634ZM18.6492 20.3221L18.5626 19.9346H18.1022L18.0201 20.3221H17.5688L18.1022 18.02H18.5808L19.1324 20.3221H18.6447H18.6492ZM15.7363 20.3221L15.6269 18.6627H15.6178L15.5448 19.2326L15.3488 20.3221H14.9978L14.7744 19.2189L14.6969 18.7038V18.6627H14.6924L14.624 20.3221H14.1362L14.3368 18.02H14.934L15.1573 19.3784H15.1619L15.3442 18.02H15.9551L16.1967 20.3221H15.7317H15.7363ZM14.2593 15.2119H14.7152V17.09H15.1892V17.5185H14.2593V15.2164V15.2119ZM13.6758 14.8563V22.6697C13.6758 22.6697 14.118 22.2321 14.7334 22.2321H19.5792V12.5405H16.9671C16.9671 12.5405 16.2241 14.8244 13.6758 14.8609M11.7202 15.8592C11.7202 15.6951 11.6427 15.5583 11.4102 15.572H11.3509V16.1874H11.433C11.6381 16.1874 11.7202 16.0507 11.7202 15.8592ZM18.3301 18.608H18.3256L18.2754 18.9545L18.1797 19.5699H18.4988L18.3803 18.9545L18.3301 18.608ZM6.07205 8.34663C5.99 8.41501 5.4065 8.94381 4.52213 9.05321L4.823 9.33585L7.99578 9.32217L7.01113 8.33751L6.51424 7.83607C6.51424 7.83607 6.15867 8.28737 6.07205 8.34663ZM23.7594 20.8144C23.7594 20.7004 23.6682 20.6047 23.5497 20.6047C23.4312 20.6047 23.34 20.7004 23.34 20.8144C23.34 20.9284 23.4358 21.0241 23.5497 21.0241C23.6637 21.0241 23.7594 20.9284 23.7594 20.8144ZM24.9811 17.2359C25.0951 17.2359 25.1908 17.1402 25.1908 17.0262C25.1908 16.9122 25.0951 16.8165 24.9811 16.8165C24.8672 16.8165 24.7714 16.9122 24.7714 17.0262C24.7714 17.1402 24.8672 17.2359 24.9811 17.2359ZM23.6409 15.6769C23.6409 15.6769 23.2215 16.8393 24.6894 18.7266C24.6894 18.7266 26.8 17.8923 27.0143 15.7908C27.0143 15.7908 25.3412 16.4336 24.8352 18.216C24.8352 18.216 24.8125 16.4427 23.6454 15.6769M25.241 16.1965C25.241 16.1965 24.9127 14.4506 23.6272 13.9036C23.6272 13.9036 23.413 15.1207 25.1863 16.7253C25.1863 16.7253 27.1191 15.5355 26.9641 13.4295C26.9641 13.4295 25.4279 14.3549 25.2364 16.1965M22.7474 19.0958C22.7474 19.0958 21.9542 20.0394 22.6881 22.3187C22.6881 22.3187 24.9583 22.2549 25.8746 20.354C25.8746 20.354 24.0831 20.3859 22.9936 21.8857C22.9936 21.8857 23.5816 20.2127 22.7474 19.0912M25.2911 14.1406C25.2911 14.1406 24.6666 12.4813 23.3081 12.1576C23.3081 12.1576 23.3081 13.393 25.3367 14.6648C25.3367 14.6648 27.0325 13.156 26.5174 11.1091C26.5174 11.1091 25.1635 12.2898 25.2957 14.1361M23.8369 23.276C24.1834 23.0618 24.5161 22.7655 24.7897 22.3643C24.7897 22.3643 24.0329 22.264 23.1486 22.5649L23.8369 23.276ZM10.6215 18.9454L10.5714 18.5989H10.5668L10.5167 18.9454L10.421 19.5562H10.7401L10.6261 18.9454H10.6215ZM3.87481 5.3334C2.43885 6.87876 3.2047 9.01674 3.2047 9.01674C5.59796 8.87087 6.18602 7.79048 6.18602 7.79048C4.84123 7.42123 3.49645 8.57456 3.49645 8.57456C4.49934 7.01552 3.87481 5.3334 3.87481 5.3334ZM12.8416 23.8322H14.2183C14.2183 23.8322 14.3094 23.235 14.6969 23.235H20.418V13.1696L19.8481 12.5725V22.5467H14.7243C14.7243 22.5467 14.0359 22.6059 13.4935 23.2669C13.4935 23.2669 13.0741 22.6378 12.176 22.5786H7.17068V12.6636L6.55527 13.279V23.2396H12.1395C12.1395 23.2396 12.8279 23.2669 12.8279 23.8368M2.13343 13.2334C2.13343 13.1195 2.0377 13.0238 1.92373 13.0238C1.80977 13.0238 1.71403 13.1195 1.71403 13.2334C1.71403 13.3474 1.80977 13.4431 1.92373 13.4431C2.0377 13.4431 2.13343 13.3474 2.13343 13.2334ZM1.95108 12.3719C2.3568 10.5667 1.19891 9.19909 1.19891 9.19909C0.378366 11.1411 1.828 12.887 1.828 12.887C4.02524 11.9342 4.21215 10.7125 4.21215 10.7125C2.82177 10.8265 1.95108 12.3719 1.95108 12.3719ZM0.401159 11.4237C-0.0683768 13.4796 1.66389 14.9475 1.66389 14.9475C3.66056 13.6255 3.62865 12.3947 3.62865 12.3947C2.2793 12.7457 1.69124 14.4232 1.69124 14.4232C1.77786 12.5725 0.401159 11.4282 0.401159 11.4282M2.68046 7.32095C2.68046 7.32095 2.56193 6.57334 3.3369 5.45648H0.711143C0.711143 5.45648 0.825108 5.7619 2.68046 7.32095ZM9.6232 11.2094V10.9222L8.25562 9.55466H5.05549L6.86069 11.2049H9.61864L9.6232 11.2094ZM6.32734 22.7655C6.33645 22.8612 6.35469 22.7427 6.35469 22.7427V21.3797L6.13132 21.6304C6.25896 21.9723 6.30454 22.4646 6.33189 22.7655M2.96309 9.38143C2.96309 9.4954 3.05882 9.59113 3.17279 9.59113C3.28675 9.59113 3.38248 9.4954 3.38248 9.38143C3.38248 9.26747 3.29131 9.17174 3.17279 9.17174C3.05426 9.17174 2.96309 9.26747 2.96309 9.38143ZM6.31366 24.288C6.42763 24.288 6.52336 24.1923 6.52336 24.0784C6.52336 23.9644 6.42763 23.8687 6.31366 23.8687C6.1997 23.8687 6.10397 23.9644 6.10397 24.0784C6.10397 24.1923 6.1997 24.288 6.31366 24.288ZM7.77241 8.68852L9.6232 10.512V9.10336L7.77241 7.25257V8.69308V8.68852ZM6.33645 19.5152H5.45664V20.6321H6.33645V19.5152ZM18.5945 7.53064L17.154 9.09424L17.1677 11.5969C17.1677 11.5969 17.1221 12.0072 17.0355 12.2123H17.9609L20.6049 9.56833L18.5945 7.53064ZM10.7993 15.1982V15.6267H10.3389V16.1282H10.7446V16.5567H10.3389V17.0763H10.8039V17.5049H9.88304V15.2028L9.24484 17.5049H8.87103L8.20548 15.2028H8.69325L8.96677 16.3105C9.00779 16.4427 9.02147 16.5749 9.04882 16.7025H9.05338C9.07617 16.5703 9.08529 16.4381 9.12176 16.3014L9.39983 15.2028H10.7902L10.7993 15.1982ZM11.3737 20.3038H10.8905L10.8039 19.9164H10.3435L10.2614 20.3038H9.81011L10.3435 18.0017H10.8221L11.3783 20.3038H11.3737ZM10.8951 15.1982H11.3555C11.6472 15.1982 12.1623 15.2301 12.1623 15.8592C12.1623 16.1145 12.0621 16.3287 11.8387 16.4518L12.2398 17.5003H11.7612L11.36 16.4381H11.3555V17.5003H10.8996V15.1982H10.8951ZM12.3265 15.1982H12.7823V17.5003H12.3265V15.1982ZM11.9891 20.3403C11.8615 20.3403 11.7019 20.2993 11.5971 20.2263V19.7933C11.7065 19.8662 11.8068 19.9164 11.9435 19.9164C12.0894 19.9164 12.2079 19.8161 12.2079 19.6656C12.2079 19.4878 12.0666 19.4195 11.939 19.3283C11.6746 19.1505 11.515 18.9818 11.515 18.6445C11.515 18.2798 11.7247 17.9653 12.1168 17.9653C12.2626 17.9653 12.3948 18.0063 12.5179 18.0792V18.5214C12.4267 18.4439 12.3128 18.3755 12.1897 18.3755C12.0484 18.3755 11.9572 18.4622 11.9572 18.6035C11.9572 18.9818 12.6501 19.0046 12.6501 19.6292C12.6501 20.0394 12.4176 20.3449 11.9891 20.3449M9.72349 18.4303H9.36336V20.3038H8.9075V18.4303H8.55193V18.0017H9.72349V18.4303ZM7.44875 12.536V22.2276H12.249C12.7914 22.2412 13.3521 22.6652 13.3521 22.6652V14.911C10.4438 14.8472 9.86025 12.5314 9.86025 12.5314H7.44875V12.536ZM7.65845 25.1496C7.61286 24.4111 7.48066 23.8732 7.31199 23.4402H6.45954C6.69202 24.2516 7.2117 24.8579 7.2117 24.8579C5.65266 23.855 3.97054 24.4795 3.97054 24.4795C5.51591 25.9155 7.65389 25.1496 7.65389 25.1496M4.77285 9.62304L4.34435 9.22188C3.30954 9.48628 2.55738 10.4026 2.55738 10.4026C3.04059 9.24012 2.78075 8.15517 2.56193 7.57623L2.25195 7.32095C1.35391 9.0213 2.34768 10.8903 2.34768 10.8903C3.72894 10.5576 4.4264 10.0151 4.77285 9.62304ZM2.44797 22.6834C3.71982 24.3655 5.95809 23.9826 5.95809 23.9826C6.23161 21.603 5.26518 20.8326 5.26518 20.8326C4.66801 22.0954 5.57061 23.6225 5.57061 23.6225C4.21215 22.3689 2.44797 22.688 2.44797 22.688M6.30454 14.2409H5.42473V15.3578H6.30454V14.2409Z" fill="#19398A"/>
</g>
<defs>
<clipPath id="clip0_51_356">
<rect width="123.246" height="28.0171" fill="white"/>
</clipPath>
</defs>
</svg>
